<svg width="178" height="31" viewBox="0 0 178 31" fill="none" xmlns="http://www.w3.org/2000/svg">
<g filter="url(#filter0_d_69_3388)">
<path d="M130.096 22.3367L124.867 13.1622C127.183 12.0531 128.658 9.71438 128.66 7.14621C128.66 3.4546 125.656 0.451024 121.964 0.451024H110.78V22.3358H115.753V13.8414H119.712L124.554 22.3367H130.096ZM115.672 9.61668V4.68625H121.032L121.012 4.69467C122.643 4.78226 123.683 5.72801 123.683 7.15631C123.683 8.56904 122.569 9.559 120.909 9.61795H115.672V9.61668ZM90.4676 22.3367V0.451024H106.819V4.62688H95.5757V9.00528H105.434V13.2742H95.5757V17.9427H107.376V22.3367H90.4676ZM67.1456 22.3367L61.9162 13.1622C64.2322 12.0531 65.7072 9.71396 65.7093 7.14621C65.7093 3.4546 62.7058 0.451024 59.0141 0.451024H47.829V22.3358H52.8032V13.8414H56.763L61.6038 22.3367H67.1456ZM52.7203 9.61668V4.68625H58.0815L58.0604 4.69467C59.6921 4.78226 60.7326 5.72801 60.7326 7.15631C60.7326 8.56904 59.6184 9.559 57.9577 9.61795H52.7203V9.61668ZM34.5742 22.8761C40.5582 22.8761 44.1319 19.4354 44.1319 13.6734V0.467029H39.0242V13.3319C39.0242 16.4475 37.4022 18.2345 34.5746 18.2345H34.5717C31.7441 18.2345 30.123 16.4479 30.123 13.3319V0.467029H25.0132V13.6742C25.0132 19.4359 28.5869 22.8765 34.5717 22.8765H34.5742V22.8761ZM18.3327 10.2155C21.2803 11.2206 22.717 13.7281 22.717 16.146C22.717 19.5525 19.9509 22.3257 16.5473 22.3367H4.46527V0.449341H15.5932C18.4898 0.47629 20.8251 2.83055 20.8285 5.72759C20.8322 7.55508 19.8873 9.25372 18.3327 10.2146V10.2155ZM9.4795 18.253H15.0639C16.8194 18.253 17.7377 16.9439 17.7377 15.6495C17.7377 14.6069 16.9086 13.139 15.0639 13.139H9.4795V18.253ZM13.5686 9.05665C14.8546 9.05665 15.8635 8.06332 15.8635 6.79503C15.8635 5.56884 14.8108 4.5334 13.5678 4.5334H9.4795V9.05665H13.5686Z" fill="black"/>
<path d="M83.3405 10.2111C86.2881 11.2154 87.7248 13.7238 87.7248 16.1416C87.7248 19.5486 84.9587 22.3205 81.5552 22.3323L69.4735 22.3315V0.444998L80.5997 0.44458C83.4972 0.47195 85.8325 2.82663 85.8359 5.72408C85.8392 7.55157 84.8947 9.24979 83.3401 10.2103L83.3405 10.2111ZM74.4873 18.2487H80.0713C81.8267 18.2487 82.7451 16.9396 82.7451 15.6452C82.7451 14.603 81.9152 13.1347 80.0713 13.1347H74.4873V18.2487ZM78.5752 9.0523C79.8628 9.0523 80.8717 8.05898 80.8717 6.79068C80.8717 5.5645 79.819 4.52906 78.5752 4.52906H74.4873V9.0523H78.5752Z" fill="black"/>
<path d="M151.741 22.3366L146.512 13.1621C148.828 12.053 150.303 9.71386 150.305 7.14611C150.305 3.4545 147.302 0.450928 143.61 0.450928H132.425V22.3357H137.399V13.8413H141.359L146.2 22.3366H151.742H151.741ZM137.316 9.61658V4.68615H142.677L142.656 4.69458C144.288 4.78216 145.329 5.72791 145.329 7.15622C145.329 8.56894 144.215 9.5589 142.553 9.61785H137.316V9.61658ZM159.009 22.3366V13.4185L150.327 0.450928H156.705L161.703 7.97521L166.722 0.450928H173.1L164.397 13.4185V22.3366H159.009Z" fill="black"/>
</g>
<defs>
<filter id="filter0_d_69_3388" x="0.465271" y="0.44458" width="176.635" height="30.4319" filterUnits="userSpaceOnUse" color-interpolation-filters="sRGB">
<feFlood flood-opacity="0" result="BackgroundImageFix"/>
<feColorMatrix in="SourceAlpha" type="matrix" values="0 0 0 0 0 0 0 0 0 0 0 0 0 0 0 0 0 0 127 0" result="hardAlpha"/>
<feOffset dy="4"/>
<feGaussianBlur stdDeviation="2"/>
<feComposite in2="hardAlpha" operator="out"/>
<feColorMatrix type="matrix" values="0 0 0 0 0 0 0 0 0 0 0 0 0 0 0 0 0 0 0.25 0"/>
<feBlend mode="normal" in2="BackgroundImageFix" result="effect1_dropShadow_69_3388"/>
<feBlend mode="normal" in="SourceGraphic" in2="effect1_dropShadow_69_3388" result="shape"/>
</filter>
</defs>
</svg>
