<svg width="26" height="26" viewBox="0 0 26 26" fill="none" xmlns="http://www.w3.org/2000/svg">
<g filter="url(#filter0_d_121_53929)">
<path d="M12.9179 12.4993C14.6928 12.4993 16.1316 11.091 16.1316 9.35366C16.1316 7.61637 14.6928 6.20801 12.9179 6.20801C11.143 6.20801 9.7041 7.61637 9.7041 9.35366C9.7041 11.091 11.143 12.4993 12.9179 12.4993Z" fill="#CDCED6"/>
<path d="M16.4085 0.947266H9.37149C6.5733 0.947266 4.30151 3.17092 4.30151 5.90981V12.7435C4.30151 15.5366 6.5733 17.7603 9.37149 17.7603H16.3531C19.2067 17.7603 21.4785 15.5366 21.4785 12.7977V5.90981C21.4785 3.17092 19.2067 0.947266 16.4085 0.947266ZM12.9177 13.4757C10.5628 13.4757 8.70657 11.6045 8.70657 9.35377C8.70657 7.10299 10.5905 5.23187 12.9177 5.23187C15.2172 5.23187 17.1011 7.10299 17.1011 9.35377C17.1011 11.6045 15.2449 13.4757 12.9177 13.4757ZM18.7357 5.61152C18.4587 5.90981 18.0431 6.07252 17.5721 6.07252C17.1565 6.07252 16.741 5.90981 16.4085 5.61152C16.1037 5.31322 15.9375 4.93357 15.9375 4.47257C15.9375 4.01157 16.1037 3.65904 16.4085 3.33363C16.7133 3.00821 17.1011 2.84551 17.5721 2.84551C17.9877 2.84551 18.4309 3.00821 18.7357 3.30651C19.0127 3.65904 19.2067 4.06581 19.2067 4.49969C19.179 4.93357 19.0127 5.31322 18.7357 5.61152Z" fill="#CDCED6"/>
<path d="M17.6 3.82129C17.2398 3.82129 16.9351 4.11958 16.9351 4.47211C16.9351 4.82465 17.2398 5.12294 17.6 5.12294C17.9601 5.12294 18.2649 4.82465 18.2649 4.47211C18.2649 4.11958 17.9878 3.82129 17.6 3.82129Z" fill="#CDCED6"/>
</g>
<defs>
<filter id="filter0_d_121_53929" x="0.301514" y="0.947266" width="25.177" height="24.8135" filterUnits="userSpaceOnUse" color-interpolation-filters="sRGB">
<feFlood flood-opacity="0" result="BackgroundImageFix"/>
<feColorMatrix in="SourceAlpha" type="matrix" values="0 0 0 0 0 0 0 0 0 0 0 0 0 0 0 0 0 0 127 0" result="hardAlpha"/>
<feOffset dy="4"/>
<feGaussianBlur stdDeviation="2"/>
<feComposite in2="hardAlpha" operator="out"/>
<feColorMatrix type="matrix" values="0 0 0 0 0 0 0 0 0 0 0 0 0 0 0 0 0 0 0.25 0"/>
<feBlend mode="normal" in2="BackgroundImageFix" result="effect1_dropShadow_121_53929"/>
<feBlend mode="normal" in="SourceGraphic" in2="effect1_dropShadow_121_53929" result="shape"/>
</filter>
</defs>
</svg>
