<svg width="194" height="49" viewBox="0 0 194 49" fill="none" xmlns="http://www.w3.org/2000/svg">
<path d="M55 38.2934H64.5887C70.0134 38.2934 72.6737 35.529 72.6737 31.8392C72.6737 28.2536 70.1291 26.1485 67.6076 26.0212V25.7899C69.9209 25.2463 71.7484 23.627 71.7484 20.7469C71.7484 17.2191 69.2037 14.6051 64.0682 14.6051H55V38.2934ZM59.2912 34.7077V27.7678H64.0219C66.6707 27.7678 68.3131 29.3871 68.3131 31.5038C68.3131 33.3891 67.0177 34.7077 63.9063 34.7077H59.2912ZM59.2912 24.6795V18.1444H63.6287C66.1502 18.1444 67.4572 19.4746 67.4572 21.3021C67.4572 23.3841 65.7685 24.6795 63.5361 24.6795H59.2912Z" fill="white"/>
<path d="M87.5454 30.8214C87.5454 33.5279 85.6138 34.8697 83.7631 34.8697C81.7506 34.8697 80.4088 33.447 80.4088 31.1915V20.5271H76.2217V31.8392C76.2217 36.1073 78.6507 38.5247 82.1438 38.5247C84.8041 38.5247 86.6779 37.1251 87.4876 35.1357H87.6726V38.2934H91.7325V20.5271H87.5454V30.8214Z" fill="white"/>
<path d="M110.08 25.2232C109.502 22.2158 107.096 20.2958 102.932 20.2958C98.6522 20.2958 95.7374 22.4009 95.749 25.6858C95.7374 28.2767 97.3336 29.9886 100.746 30.6941L103.776 31.3303C105.407 31.6889 106.17 32.3481 106.17 33.3544C106.17 34.5689 104.852 35.4827 102.862 35.4827C100.942 35.4827 99.6932 34.6499 99.3346 33.0537L95.2516 33.447C95.7721 36.7087 98.5134 38.6404 102.874 38.6404C107.316 38.6404 110.45 36.3386 110.462 32.9727C110.45 30.4397 108.819 28.8897 105.465 28.1611L102.434 27.5133C100.63 27.1085 99.913 26.4839 99.9245 25.4545C99.913 24.2516 101.243 23.4188 102.99 23.4188C104.921 23.4188 105.939 24.4713 106.263 25.6395L110.08 25.2232Z" fill="white"/>
<path d="M113.914 38.2934H118.101V20.5271H113.914V38.2934ZM116.019 18.0056C117.35 18.0056 118.437 16.9878 118.437 15.7386C118.437 14.4778 117.35 13.46 116.019 13.46C114.678 13.46 113.59 14.4778 113.59 15.7386C113.59 16.9878 114.678 18.0056 116.019 18.0056Z" fill="white"/>
<path d="M126.594 27.8835C126.594 25.3157 128.144 23.8352 130.353 23.8352C132.516 23.8352 133.812 25.2578 133.812 27.629V38.2934H137.999V26.9813C138.01 22.7248 135.581 20.2958 131.915 20.2958C129.254 20.2958 127.427 21.5681 126.617 23.546H126.409V20.5271H122.407V38.2934H126.594V27.8835Z" fill="white"/>
<path d="M150.121 38.6404C154.261 38.6404 157.107 36.6162 157.847 33.5279L153.937 33.0884C153.371 34.5921 151.983 35.3786 150.178 35.3786C147.472 35.3786 145.679 33.5973 145.644 30.5553H158.02V29.2714C158.02 23.0371 154.273 20.2958 149.901 20.2958C144.811 20.2958 141.492 24.0318 141.492 29.5143C141.492 35.0894 144.765 38.6404 150.121 38.6404ZM145.656 27.7331C145.783 25.466 147.46 23.5576 149.959 23.5576C152.364 23.5576 153.984 25.3157 154.007 27.7331H145.656Z" fill="white"/>
<path d="M175.605 25.2232C175.026 22.2158 172.62 20.2958 168.456 20.2958C164.177 20.2958 161.262 22.4009 161.274 25.6858C161.262 28.2767 162.858 29.9886 166.27 30.6941L169.301 31.3303C170.932 31.6889 171.695 32.3481 171.695 33.3544C171.695 34.5689 170.376 35.4827 168.387 35.4827C166.467 35.4827 165.218 34.6499 164.859 33.0537L160.776 33.447C161.297 36.7087 164.038 38.6404 168.399 38.6404C172.84 38.6404 175.975 36.3386 175.986 32.9727C175.975 30.4397 174.344 28.8897 170.989 28.1611L167.959 27.5133C166.155 27.1085 165.438 26.4839 165.449 25.4545C165.438 24.2516 166.768 23.4188 168.514 23.4188C170.446 23.4188 171.464 24.4713 171.788 25.6395L175.605 25.2232Z" fill="white"/>
<path d="M193.481 25.2232C192.902 22.2158 190.496 20.2958 186.333 20.2958C182.053 20.2958 179.138 22.4009 179.15 25.6858C179.138 28.2767 180.734 29.9886 184.146 30.6941L187.177 31.3303C188.808 31.6889 189.571 32.3481 189.571 33.3544C189.571 34.5689 188.253 35.4827 186.263 35.4827C184.343 35.4827 183.094 34.6499 182.735 33.0537L178.652 33.447C179.173 36.7087 181.914 38.6404 186.275 38.6404C190.716 38.6404 193.851 36.3386 193.862 32.9727C193.851 30.4397 192.22 28.8897 188.866 28.1611L185.835 27.5133C184.031 27.1085 183.314 26.4839 183.325 25.4545C183.314 24.2516 184.644 23.4188 186.39 23.4188C188.322 23.4188 189.34 24.4713 189.664 25.6395L193.481 25.2232Z" fill="white"/>
<g filter="url(#filter0_d_121_53352)">
<path d="M26.6666 14.6667H32.1666C35.2043 14.6667 37.6666 17.1292 37.6666 20.1667V40.3334H26.6666V14.6667Z" fill="white"/>
<path d="M8.33337 13.461C8.33337 10.9372 10.051 8.73729 12.4994 8.12518L23.4994 5.37518C26.9707 4.50735 30.3334 7.13283 30.3334 10.711V40.3334H8.33337V13.461Z" fill="#98AAE9"/>
<path fill-rule="evenodd" clip-rule="evenodd" d="M15.6666 31.1666C15.6666 30.154 16.4874 29.3333 17.5 29.3333H21.1666C22.1792 29.3333 23 30.154 23 31.1666C23 32.1791 22.1792 32.9999 21.1666 32.9999H17.5C16.4874 32.9999 15.6666 32.1791 15.6666 31.1666Z" fill="white"/>
<path fill-rule="evenodd" clip-rule="evenodd" d="M15.6666 23.8333C15.6666 22.8208 16.4874 22 17.5 22H21.1666C22.1792 22 23 22.8208 23 23.8333C23 24.8459 22.1792 25.6667 21.1666 25.6667H17.5C16.4874 25.6667 15.6666 24.8459 15.6666 23.8333Z" fill="white"/>
<path fill-rule="evenodd" clip-rule="evenodd" d="M15.6666 16.5001C15.6666 15.4876 16.4874 14.6667 17.5 14.6667H21.1666C22.1792 14.6667 23 15.4876 23 16.5001C23 17.5126 22.1792 18.3334 21.1666 18.3334H17.5C16.4874 18.3334 15.6666 17.5126 15.6666 16.5001Z" fill="white"/>
<path fill-rule="evenodd" clip-rule="evenodd" d="M4.66663 38.5001C4.66663 37.4875 5.48745 36.6667 6.49996 36.6667H39.5C40.5125 36.6667 41.3333 37.4875 41.3333 38.5001C41.3333 39.5126 40.5125 40.3334 39.5 40.3334H6.49996C5.48745 40.3334 4.66663 39.5126 4.66663 38.5001Z" fill="#98AAE9"/>
</g>
<defs>
<filter id="filter0_d_121_53352" x="-3" y="0" width="52" height="52" filterUnits="userSpaceOnUse" color-interpolation-filters="sRGB">
<feFlood flood-opacity="0" result="BackgroundImageFix"/>
<feColorMatrix in="SourceAlpha" type="matrix" values="0 0 0 0 0 0 0 0 0 0 0 0 0 0 0 0 0 0 127 0" result="hardAlpha"/>
<feOffset dy="4"/>
<feGaussianBlur stdDeviation="2"/>
<feComposite in2="hardAlpha" operator="out"/>
<feColorMatrix type="matrix" values="0 0 0 0 0 0 0 0 0 0 0 0 0 0 0 0 0 0 0.25 0"/>
<feBlend mode="normal" in2="BackgroundImageFix" result="effect1_dropShadow_121_53352"/>
<feBlend mode="normal" in="SourceGraphic" in2="effect1_dropShadow_121_53352" result="shape"/>
</filter>
</defs>
</svg>
